<svg width="21" height="21" viewBox="0 0 21 21" fill="none" xmlns="http://www.w3.org/2000/svg">
<path d="M8.59204 15.9728C8.82421 16.2051 9.09988 16.3894 9.4033 16.5151C9.70672 16.6408 10.0319 16.7056 10.3604 16.7056C10.6888 16.7056 11.014 16.6408 11.3175 16.5151C11.6209 16.3894 11.8965 16.2051 12.1287 15.9728L14.8045 13.2969C14.948 13.1383 15.025 12.9305 15.0195 12.7166C15.014 12.5028 14.9265 12.2993 14.775 12.1482C14.6236 11.9971 14.4199 11.91 14.206 11.9049C13.9922 11.8999 13.7846 11.9773 13.6262 12.1211L11.1879 14.5603L11.1937 1.70443C11.1937 1.48341 11.1059 1.27145 10.9496 1.11517C10.7934 0.958891 10.5814 0.871094 10.3604 0.871094V0.871094C10.1394 0.871094 9.9274 0.958891 9.77112 1.11517C9.61484 1.27145 9.52704 1.48341 9.52704 1.70443L9.51954 14.5444L7.09454 12.1211C6.93818 11.9648 6.72614 11.8771 6.50508 11.8772C6.28402 11.8773 6.07205 11.9651 5.91579 12.1215C5.75954 12.2779 5.6718 12.4899 5.67188 12.711C5.67195 12.932 5.75984 13.144 5.91621 13.3003L8.59204 15.9728Z" fill="black"/>
<path d="M19.527 14.2051C19.306 14.2051 19.094 14.2929 18.9378 14.4492C18.7815 14.6054 18.6937 14.8174 18.6937 15.0384V18.3718C18.6937 18.5928 18.6059 18.8047 18.4496 18.961C18.2933 19.1173 18.0814 19.2051 17.8604 19.2051H2.86035C2.63934 19.2051 2.42738 19.1173 2.2711 18.961C2.11482 18.8047 2.02702 18.5928 2.02702 18.3718V15.0384C2.02702 14.8174 1.93922 14.6054 1.78294 14.4492C1.62666 14.2929 1.4147 14.2051 1.19368 14.2051C0.972671 14.2051 0.76071 14.2929 0.604429 14.4492C0.448149 14.6054 0.360352 14.8174 0.360352 15.0384L0.360352 18.3718C0.360352 19.0348 0.623744 19.6707 1.09258 20.1395C1.56143 20.6084 2.19731 20.8718 2.86035 20.8718H17.8604C18.5234 20.8718 19.1593 20.6084 19.6281 20.1395C20.097 19.6707 20.3604 19.0348 20.3604 18.3718V15.0384C20.3604 14.8174 20.2726 14.6054 20.1163 14.4492C19.96 14.2929 19.748 14.2051 19.527 14.2051Z" fill="black"/>
</svg>
